<svg xmlns="http://www.w3.org/2000/svg" width="1300" height="460" viewBox="0 0 1300 460" role="img" aria-label="MCC マーケティングCampコミュニティ">
  <title>MCC ロゴタイプ（横組み・アウトライン）</title>
  <g transform="translate(10 -10) scale(0.86)">
    <g fill="none">
    <!-- ground -->
    <path d="M96 392 Q256 368 416 392" stroke="#5a6b42" stroke-width="11" stroke-linecap="round"/>

    <!-- wheat (left) / 稲穂 -->
    <g stroke="#d9a43d" stroke-width="6" stroke-linecap="round">
      <path d="M150 388 Q116 320 122 246" fill="none"/>
    </g>
    <g fill="#d9a43d">
      <ellipse cx="122" cy="240" rx="9" ry="15"/>
      <ellipse cx="106" cy="262" rx="8" ry="13" transform="rotate(-28 106 262)"/>
      <ellipse cx="139" cy="262" rx="8" ry="13" transform="rotate(28 139 262)"/>
      <ellipse cx="111" cy="290" rx="8" ry="13" transform="rotate(-28 111 290)"/>
      <ellipse cx="140" cy="292" rx="8" ry="13" transform="rotate(28 140 292)"/>
      <ellipse cx="118" cy="318" rx="8" ry="12" transform="rotate(-26 118 318)"/>
      <ellipse cx="143" cy="320" rx="8" ry="12" transform="rotate(26 143 320)"/>
    </g>

    <!-- leaf (right upper) / 葉 -->
    <path d="M392 232 Q430 250 416 300 Q382 286 392 232 Z" fill="#5a6b42"/>
    <path d="M398 250 Q404 276 410 290" stroke="#faf5ed" stroke-width="4" stroke-linecap="round"/>

    <!-- tomato (right lower) / トマト -->
    <circle cx="392" cy="356" r="26" fill="#c05e3f"/>
    <g fill="#5a6b42">
      <path d="M392 332 l6 10 11 -4 -7 11 9 6 -12 2 1 12 -8 -9 -8 9 1 -12 -12 -2 9 -6 -7 -11 11 4 Z"/>
    </g>

    <!-- flag -->
    <path d="M256 176 V113" stroke="#c05e3f" stroke-width="9" stroke-linecap="round"/>
    <path d="M256 114 L300 128 L256 142 Z" fill="#c05e3f"/>

    <!-- tent -->
    <path d="M256 168 L378 384 L134 384 Z" fill="#c05e3f"/>
    <path d="M190 384 V300 Q190 270 224 268 Q256 266 288 268 Q322 270 322 300 V384 Z" fill="#faf5ed"/>

    <!-- people -->
    <circle cx="213" cy="336" r="15" fill="#5a6b42"/>
    <path d="M191 384 Q191 354 213 354 Q235 354 235 384 Z" fill="#5a6b42"/>
    <circle cx="256" cy="332" r="16" fill="#c05e3f"/>
    <path d="M232 384 Q232 352 256 352 Q280 352 280 384 Z" fill="#c05e3f"/>
    <circle cx="299" cy="336" r="15" fill="#d9a43d"/>
    <path d="M277 384 Q277 354 299 354 Q321 354 321 384 Z" fill="#d9a43d"/>
  </g>
  </g>
  <g transform="translate(470 300)" fill="#c05e3f">
    <path d="M7.44 -0.00L7.44 -8.18L36.97 -11.66L42.66 -11.66L72.42 -8.18L72.42 -0.00ZM10.15 -175.58L10.15 -183.75L47.62 -183.75L47.62 -172.13L44.14 -172.13ZM33.71 -0.00L34.49 -183.75L43.40 -183.75L44.87 -89.28L44.87 -0.00ZM106.64 -0.00L38.94 -173.10L37.43 -173.10L37.43 -183.75L70.91 -183.75L127.49 -36.97L121.02 -36.97L122.76 -41.15L177.32 -183.75L189.95 -183.75L189.95 -173.10L183.75 -173.10L180.54 -165.42L117.80 -0.00ZM154.50 -0.00L154.50 -8.18L192.43 -11.66L198.90 -11.66L237.07 -8.18L237.07 -0.00ZM177.32 -0.00Q177.82 -21.58 177.82 -42.39Q177.82 -63.24 178.06 -80.83L179.06 -183.75L213.78 -183.75Q213.28 -162.44 213.16 -140.86Q213.05 -119.27 213.05 -97.73L213.05 -85.79Q213.05 -63.98 213.16 -42.51Q213.28 -21.08 213.78 -0.00ZM195.42 -172.13L195.42 -183.75L236.61 -183.75L236.61 -175.58L199.14 -172.13ZM356.13 4.73Q335.55 4.73 318.04 -1.24Q300.56 -7.21 287.54 -19.22Q274.52 -31.23 267.31 -48.98Q260.14 -66.73 260.14 -90.52Q260.14 -114.31 267.47 -132.68Q274.79 -151.05 287.93 -163.45Q301.06 -175.85 318.66 -182.05Q336.29 -188.25 356.13 -188.25Q372.98 -188.25 385.27 -184.76Q397.55 -181.27 409.45 -174.34L408.94 -130.94L395.58 -130.94L382.67 -180.54L400.54 -174.61L400.54 -166.16Q390.85 -173.10 381.78 -176.08Q372.75 -179.06 361.82 -179.06Q343.50 -179.06 328.85 -169.49Q314.20 -159.96 305.64 -140.62Q297.11 -121.29 297.11 -91.76Q297.11 -62.23 305.64 -42.90Q314.20 -23.56 328.85 -14.14Q343.50 -4.73 362.10 -4.73Q372.98 -4.73 382.40 -7.83Q391.86 -10.93 402.01 -18.37L402.01 -9.42L384.65 -3.72L397.28 -52.58L410.92 -52.58L411.42 -9.69Q399.53 -2.71 386.12 1.01Q372.75 4.73 356.13 4.73ZM530.22 4.73Q509.65 4.73 492.13 -1.24Q474.66 -7.21 461.64 -19.22Q448.62 -31.23 441.41 -48.98Q434.24 -66.73 434.24 -90.52Q434.24 -114.31 441.56 -132.68Q448.89 -151.05 462.02 -163.45Q475.16 -175.85 492.75 -182.05Q510.38 -188.25 530.22 -188.25Q547.08 -188.25 559.36 -184.76Q571.65 -181.27 583.54 -174.34L583.04 -130.94L569.67 -130.94L556.77 -180.54L574.63 -174.61L574.63 -166.16Q564.94 -173.10 555.88 -176.08Q546.85 -179.06 535.92 -179.06Q517.59 -179.06 502.94 -169.49Q488.30 -159.96 479.73 -140.62Q471.21 -121.29 471.21 -91.76Q471.21 -62.23 479.73 -42.90Q488.30 -23.56 502.94 -14.14Q517.59 -4.73 536.19 -4.73Q547.08 -4.73 556.50 -7.83Q565.95 -10.93 576.10 -18.37L576.10 -9.42L558.74 -3.72L571.38 -52.58L585.02 -52.58L585.52 -9.69Q573.62 -2.71 560.22 1.01Q546.85 4.73 530.22 4.73Z"/>
  </g>
  <g transform="translate(478 372)" fill="#33312e">
    <path d="M31.35 -1.20Q30.05 -3.15 27.92 -5.52Q25.80 -7.90 23.30 -10.32Q20.80 -12.75 18.27 -14.92Q15.75 -17.10 13.65 -18.65Q14.35 -19.15 15.40 -20.07Q16.45 -21.00 17.10 -21.50Q18.70 -20.40 20.55 -18.92Q22.40 -17.45 24.25 -15.75Q26.50 -17.55 29.00 -19.72Q31.50 -21.90 33.80 -24.09Q36.10 -26.30 37.75 -28.10Q36.40 -28.05 33.77 -27.97Q31.15 -27.90 27.77 -27.82Q24.40 -27.75 20.84 -27.70Q17.30 -27.65 14.02 -27.57Q10.75 -27.50 8.30 -27.42Q5.85 -27.35 4.80 -27.30Q4.80 -27.80 4.77 -28.77Q4.75 -29.75 4.70 -30.70Q4.65 -31.65 4.60 -32.05Q5.90 -32.00 8.34 -31.95Q10.80 -31.90 14.00 -31.90Q17.20 -31.90 20.77 -31.92Q24.35 -31.95 27.88 -32.00Q31.40 -32.05 34.52 -32.12Q37.65 -32.20 39.95 -32.27Q42.25 -32.35 43.35 -32.45Q43.75 -31.95 44.45 -31.00Q45.15 -30.05 45.50 -29.65Q44.95 -29.15 44.35 -28.59Q43.75 -28.05 42.95 -27.20Q40.95 -25.05 38.35 -22.52Q35.75 -20.00 32.95 -17.45Q30.15 -14.90 27.55 -12.75Q29.95 -10.45 32.02 -8.17Q34.10 -5.90 35.45 -4.00Q35.05 -3.80 34.17 -3.22Q33.30 -2.65 32.47 -2.05Q31.65 -1.45 31.35 -1.20ZM54.75 -16.50Q54.75 -16.95 54.75 -17.92Q54.75 -18.90 54.75 -19.84Q54.75 -20.80 54.70 -21.25Q55.95 -21.20 58.45 -21.17Q60.95 -21.15 64.27 -21.12Q67.60 -21.10 71.32 -21.07Q75.05 -21.05 78.77 -21.05Q82.50 -21.05 85.80 -21.07Q89.10 -21.10 91.60 -21.15Q94.10 -21.20 95.30 -21.25Q95.30 -21.10 95.30 -20.80Q95.30 -20.50 95.30 -20.15Q95.30 -19.25 95.27 -18.12Q95.25 -17.00 95.30 -16.55Q93.75 -16.60 90.70 -16.65Q87.65 -16.70 83.72 -16.73Q79.80 -16.75 75.55 -16.75Q71.30 -16.75 67.25 -16.73Q63.20 -16.70 59.92 -16.65Q56.65 -16.60 54.75 -16.50ZM117.45 2.75Q117.05 2.45 116.22 1.90Q115.40 1.35 114.52 0.80Q113.65 0.25 113.05 -0.00Q115.75 -1.80 118.07 -4.52Q120.40 -7.25 122.17 -10.50Q123.95 -13.75 125.12 -17.27Q126.30 -20.80 126.65 -24.20Q125.45 -24.20 124.25 -24.20Q123.05 -24.20 121.95 -24.20Q119.90 -24.20 118.15 -24.20Q116.40 -24.20 115.15 -24.20Q113.50 -21.85 111.75 -19.67Q110.00 -17.50 108.15 -15.75Q107.80 -16.05 107.00 -16.55Q106.20 -17.05 105.37 -17.52Q104.55 -18.00 104.05 -18.20Q106.30 -20.25 108.45 -22.92Q110.60 -25.60 112.48 -28.52Q114.35 -31.45 115.82 -34.33Q117.30 -37.20 118.25 -39.75Q118.75 -39.55 119.67 -39.25Q120.60 -38.95 121.52 -38.70Q122.45 -38.45 122.95 -38.35Q122.00 -36.00 120.67 -33.45Q119.35 -30.90 117.80 -28.35Q119.40 -28.35 122.12 -28.35Q124.85 -28.35 128.07 -28.38Q131.30 -28.40 134.62 -28.45Q137.95 -28.50 140.80 -28.57Q143.65 -28.65 145.55 -28.75Q145.55 -28.30 145.52 -27.32Q145.50 -26.35 145.48 -25.40Q145.45 -24.45 145.45 -24.00Q143.50 -24.05 139.67 -24.07Q135.85 -24.10 131.50 -24.15Q131.05 -20.55 129.90 -16.75Q128.75 -12.95 126.98 -9.35Q125.20 -5.75 122.80 -2.62Q120.40 0.50 117.45 2.75ZM165.05 2.25Q164.70 1.80 163.87 1.20Q163.05 0.60 162.22 0.02Q161.40 -0.55 160.90 -0.80Q164.40 -3.05 167.05 -6.47Q169.70 -9.90 171.27 -13.92Q172.85 -17.95 173.15 -22.05Q169.35 -22.00 165.80 -21.90Q162.25 -21.80 159.48 -21.72Q156.70 -21.65 155.10 -21.55Q155.15 -22.10 155.12 -23.00Q155.10 -23.90 155.07 -24.77Q155.05 -25.65 155.00 -26.20Q156.70 -26.15 159.70 -26.15Q162.70 -26.15 166.48 -26.17Q170.25 -26.20 174.35 -26.25Q178.45 -26.30 182.37 -26.38Q186.30 -26.45 189.57 -26.55Q192.85 -26.65 194.90 -26.75Q194.90 -26.25 194.87 -25.38Q194.85 -24.50 194.85 -23.62Q194.85 -22.75 194.90 -22.20Q193.30 -22.25 190.70 -22.25Q188.10 -22.25 184.85 -22.23Q181.60 -22.20 178.10 -22.10Q177.60 -14.95 174.25 -8.58Q170.90 -2.20 165.05 2.25ZM161.15 -33.55Q161.20 -34.05 161.17 -35.02Q161.15 -36.00 161.15 -36.90Q161.15 -37.30 161.15 -37.62Q161.15 -37.95 161.15 -38.20Q163.05 -38.15 165.84 -38.12Q168.65 -38.10 171.90 -38.12Q175.15 -38.15 178.37 -38.22Q181.60 -38.30 184.32 -38.40Q187.05 -38.50 188.75 -38.60Q188.75 -38.05 188.73 -37.09Q188.70 -36.15 188.70 -35.27Q188.70 -34.40 188.75 -33.90Q186.95 -33.95 184.15 -33.95Q181.35 -33.95 178.05 -33.92Q174.75 -33.90 171.50 -33.84Q168.25 -33.80 165.52 -33.72Q162.80 -33.65 161.15 -33.55ZM225.30 3.30Q225.30 2.20 225.32 -0.12Q225.35 -2.45 225.37 -5.35Q225.40 -8.25 225.40 -11.15Q225.40 -14.05 225.40 -16.30Q222.35 -14.00 219.30 -11.98Q216.25 -9.95 213.60 -8.50Q213.35 -8.75 212.70 -9.38Q212.05 -10.00 211.40 -10.65Q210.75 -11.30 210.45 -11.50Q213.25 -12.85 216.55 -14.95Q219.85 -17.05 223.15 -19.52Q226.45 -22.00 229.25 -24.45Q232.05 -26.90 233.85 -28.85Q234.15 -28.60 234.82 -28.10Q235.50 -27.60 236.20 -27.10Q236.90 -26.60 237.20 -26.40Q235.60 -24.70 233.57 -22.90Q231.55 -21.10 229.30 -19.30Q229.30 -17.50 229.32 -14.98Q229.35 -12.45 229.37 -9.65Q229.40 -6.85 229.42 -4.25Q229.45 -1.65 229.48 0.35Q229.50 2.35 229.50 3.30ZM260.00 -1.30Q259.80 -1.75 259.25 -2.70Q258.70 -3.65 258.12 -4.57Q257.55 -5.50 257.25 -5.85Q262.20 -7.00 267.30 -9.15Q272.40 -11.30 277.34 -14.22Q282.30 -17.15 286.72 -20.65Q291.15 -24.15 294.65 -28.05Q294.75 -27.55 295.05 -26.42Q295.35 -25.30 295.67 -24.27Q296.00 -23.25 296.15 -22.95Q291.70 -18.25 285.83 -14.07Q279.95 -9.90 273.35 -6.62Q266.75 -3.35 260.00 -1.30ZM268.20 -23.65Q267.35 -24.60 265.95 -25.85Q264.55 -27.10 262.92 -28.42Q261.30 -29.75 259.70 -30.92Q258.10 -32.10 256.85 -32.85Q257.30 -33.25 258.05 -34.02Q258.80 -34.80 259.50 -35.55Q260.20 -36.30 260.40 -36.55Q261.60 -35.75 263.17 -34.57Q264.75 -33.40 266.37 -32.07Q268.00 -30.75 269.42 -29.50Q270.85 -28.25 271.75 -27.30Q271.40 -26.95 270.70 -26.23Q270.00 -25.50 269.30 -24.77Q268.60 -24.05 268.20 -23.65ZM313.85 2.55Q313.55 2.20 312.77 1.48Q312.00 0.75 311.15 0.02Q310.30 -0.70 309.80 -1.05Q314.00 -2.95 317.98 -5.90Q321.95 -8.85 325.40 -12.48Q328.85 -16.10 331.55 -20.00Q334.25 -23.90 335.90 -27.65L321.80 -27.65Q319.05 -23.90 316.00 -20.59Q312.95 -17.30 309.95 -14.85Q309.30 -15.45 308.12 -16.42Q306.95 -17.40 306.25 -17.85Q308.70 -19.60 311.23 -22.12Q313.75 -24.65 316.10 -27.62Q318.45 -30.60 320.42 -33.77Q322.40 -36.95 323.70 -40.00Q324.20 -39.80 325.08 -39.47Q325.95 -39.15 326.83 -38.84Q327.70 -38.55 328.15 -38.40Q327.35 -36.70 326.45 -35.02Q325.55 -33.35 324.50 -31.70Q325.95 -31.70 327.90 -31.70Q329.85 -31.70 331.92 -31.73Q334.00 -31.75 335.85 -31.77Q337.70 -31.80 338.95 -31.84Q340.20 -31.90 340.50 -31.95Q340.65 -31.75 341.07 -31.35Q341.50 -30.95 341.95 -30.58Q342.40 -30.20 342.50 -30.10Q342.00 -29.30 341.27 -27.95Q340.55 -26.60 339.90 -25.15Q338.15 -21.25 335.42 -17.30Q332.70 -13.35 329.25 -9.65Q325.80 -5.95 321.90 -2.83Q318.00 0.30 313.85 2.55ZM349.90 -33.75Q349.70 -34.05 348.90 -34.90Q348.10 -35.75 347.12 -36.77Q346.15 -37.80 345.34 -38.62Q344.55 -39.45 344.30 -39.70L346.35 -41.60Q346.60 -41.30 347.40 -40.45Q348.20 -39.60 349.17 -38.57Q350.15 -37.55 350.95 -36.72Q351.75 -35.90 352.00 -35.65ZM345.80 -30.05Q345.55 -30.35 344.75 -31.17Q343.95 -32.00 342.98 -33.02Q342.00 -34.05 341.20 -34.90Q340.40 -35.75 340.15 -36.00L342.25 -37.85Q342.50 -37.55 343.27 -36.72Q344.05 -35.90 345.02 -34.88Q346.00 -33.85 346.80 -33.00Q347.60 -32.15 347.85 -31.90ZM368.25 0.75Q363.50 0.75 359.85 -1.50Q356.20 -3.75 354.12 -7.85Q352.05 -11.95 352.05 -17.50Q352.05 -23.05 354.12 -27.17Q356.20 -31.30 359.85 -33.57Q363.50 -35.85 368.25 -35.85Q372.55 -35.85 375.95 -33.98Q379.35 -32.10 381.50 -28.70L377.45 -26.30Q375.90 -28.70 373.55 -30.00Q371.20 -31.30 368.25 -31.30Q364.85 -31.30 362.27 -29.59Q359.70 -27.90 358.25 -24.82Q356.80 -21.75 356.80 -17.50Q356.80 -13.30 358.25 -10.22Q359.70 -7.15 362.27 -5.45Q364.85 -3.75 368.25 -3.75Q371.20 -3.75 373.55 -5.05Q375.90 -6.35 377.45 -8.75L381.50 -6.35Q379.35 -3.00 375.95 -1.12Q372.55 0.75 368.25 0.75ZM394.10 0.40Q390.45 0.50 388.07 -1.27Q385.70 -3.05 385.70 -6.40Q385.70 -8.85 387.27 -10.65Q388.85 -12.45 391.32 -13.48Q393.80 -14.50 396.45 -14.50Q398.00 -14.60 399.30 -14.23Q400.60 -13.85 401.55 -13.15L401.55 -16.15Q401.55 -18.95 400.37 -19.80Q399.20 -20.65 396.75 -20.65Q394.65 -20.65 392.28 -19.90Q389.90 -19.15 388.25 -18.00L386.15 -21.50Q388.20 -22.80 391.02 -23.70Q393.85 -24.60 396.75 -24.60Q401.35 -24.60 403.60 -22.77Q405.85 -20.95 405.85 -16.15L405.85 -4.10Q405.85 -3.15 406.35 -3.00Q406.85 -2.85 408.60 -3.25L408.60 -0.35Q407.95 -0.10 406.95 0.15Q405.95 0.40 404.90 0.40Q403.30 0.40 402.60 -0.20Q401.90 -0.80 401.65 -2.35Q400.30 -1.00 398.25 -0.35Q396.20 0.30 394.10 0.40ZM394.15 -3.55Q396.25 -3.60 397.97 -4.17Q399.70 -4.75 400.70 -5.82Q401.70 -6.90 401.60 -8.40Q401.50 -9.80 400.17 -10.40Q398.85 -11.00 396.80 -10.90Q394.95 -10.85 393.39 -10.23Q391.85 -9.60 390.92 -8.60Q390.00 -7.60 390.00 -6.35Q390.05 -4.95 391.15 -4.23Q392.25 -3.50 394.15 -3.55ZM413.65 -0.00L413.65 -24.00L417.70 -24.00L417.95 -20.70Q418.75 -22.40 420.47 -23.50Q422.20 -24.60 424.45 -24.60Q427.05 -24.60 428.85 -23.40Q430.65 -22.20 431.45 -20.00Q432.35 -22.00 434.17 -23.30Q436.00 -24.60 438.60 -24.60Q442.25 -24.60 444.40 -22.20Q446.55 -19.80 446.55 -15.20L446.55 -0.00L442.00 -0.00L442.00 -14.30Q442.00 -17.45 440.82 -18.98Q439.65 -20.50 437.60 -20.50Q435.15 -20.50 433.72 -18.70Q432.30 -16.90 432.30 -14.10L432.30 -0.00L427.85 -0.00L427.85 -14.30Q427.85 -17.45 426.64 -18.98Q425.45 -20.50 423.40 -20.50Q420.95 -20.50 419.55 -18.67Q418.15 -16.85 418.15 -14.15L418.15 -0.00ZM453.25 10.10L453.25 -24.00L457.25 -24.00L457.40 -20.60Q458.70 -22.50 460.60 -23.55Q462.50 -24.60 464.85 -24.60Q468.15 -24.60 470.70 -23.07Q473.25 -21.55 474.72 -18.72Q476.20 -15.90 476.20 -12.05Q476.20 -8.20 474.72 -5.35Q473.25 -2.50 470.70 -0.98Q468.15 0.55 464.85 0.55Q462.60 0.55 460.80 -0.42Q459.00 -1.40 457.75 -3.10L457.75 10.10ZM464.70 -3.55Q467.75 -3.55 469.75 -5.82Q471.75 -8.10 471.75 -12.05Q471.75 -16.00 469.75 -18.25Q467.75 -20.50 464.70 -20.50Q461.65 -20.50 459.67 -18.25Q457.70 -16.00 457.70 -12.05Q457.70 -8.10 459.67 -5.82Q461.65 -3.55 464.70 -3.55ZM485.80 -4.95Q485.85 -5.40 485.82 -6.34Q485.80 -7.30 485.80 -8.32Q485.80 -9.35 485.75 -9.90Q486.70 -9.90 489.05 -9.90Q491.40 -9.90 494.62 -9.90Q497.85 -9.90 501.45 -9.88Q505.05 -9.85 508.52 -9.85Q512.00 -9.85 514.85 -9.85L514.85 -27.80Q513.65 -27.80 511.34 -27.77Q509.05 -27.75 506.15 -27.73Q503.25 -27.70 500.15 -27.65Q497.05 -27.60 494.17 -27.55Q491.30 -27.50 489.07 -27.48Q486.85 -27.45 485.75 -27.40Q485.80 -27.95 485.80 -28.92Q485.80 -29.90 485.80 -30.88Q485.80 -31.85 485.75 -32.40Q487.20 -32.35 489.87 -32.32Q492.55 -32.30 495.92 -32.27Q499.30 -32.25 502.92 -32.27Q506.55 -32.30 509.90 -32.34Q513.25 -32.40 515.85 -32.45Q518.45 -32.50 519.80 -32.55Q519.75 -31.50 519.73 -29.40Q519.70 -27.30 519.67 -24.57Q519.65 -21.85 519.65 -18.92Q519.65 -16.00 519.67 -13.25Q519.70 -10.50 519.73 -8.35Q519.75 -6.20 519.80 -5.10Q516.45 -5.20 512.55 -5.23Q508.65 -5.25 504.62 -5.25Q500.60 -5.25 496.92 -5.20Q493.25 -5.15 490.35 -5.09Q487.45 -5.05 485.80 -4.95ZM561.90 2.60Q560.05 1.20 557.45 -0.34Q554.85 -1.90 552.00 -3.40Q549.15 -4.90 546.42 -6.15Q543.70 -7.40 541.60 -8.15Q542.00 -8.65 542.55 -9.50Q543.10 -10.35 543.62 -11.17Q544.15 -12.00 544.40 -12.45Q546.80 -11.55 549.62 -10.25Q552.45 -8.95 555.33 -7.45Q558.20 -5.95 560.73 -4.45Q563.25 -2.95 565.05 -1.65Q564.70 -1.20 564.08 -0.40Q563.45 0.40 562.85 1.22Q562.25 2.05 561.90 2.60ZM563.25 -27.40Q561.85 -28.45 559.77 -29.65Q557.70 -30.85 555.37 -32.05Q553.05 -33.25 550.77 -34.25Q548.50 -35.25 546.65 -35.85Q546.95 -36.30 547.48 -37.17Q548.00 -38.05 548.50 -38.92Q549.00 -39.80 549.20 -40.10Q551.00 -39.50 553.32 -38.48Q555.65 -37.45 558.07 -36.23Q560.50 -35.00 562.62 -33.82Q564.75 -32.65 566.10 -31.75Q565.75 -31.30 565.17 -30.42Q564.60 -29.55 564.05 -28.70Q563.50 -27.85 563.25 -27.40ZM559.40 -14.30Q557.40 -15.80 554.62 -17.34Q551.85 -18.90 549.00 -20.22Q546.15 -21.55 543.80 -22.30Q544.10 -22.75 544.62 -23.62Q545.15 -24.50 545.67 -25.35Q546.20 -26.20 546.40 -26.55Q548.10 -26.00 550.23 -25.05Q552.35 -24.10 554.55 -23.00Q556.75 -21.90 558.77 -20.77Q560.80 -19.65 562.25 -18.70Q561.90 -18.25 561.30 -17.38Q560.70 -16.50 560.17 -15.62Q559.65 -14.75 559.40 -14.30ZM587.00 -2.70Q587.00 -3.15 586.98 -3.95Q586.95 -4.75 586.95 -5.55Q586.95 -6.35 586.90 -6.70Q588.15 -6.65 590.30 -6.59Q592.45 -6.55 595.17 -6.55Q597.90 -6.55 600.90 -6.55Q603.90 -6.55 606.80 -6.55Q606.90 -7.55 607.02 -9.20Q607.15 -10.85 607.32 -12.65Q607.50 -14.45 607.62 -15.98Q607.75 -17.50 607.80 -18.30Q606.95 -18.30 605.35 -18.25Q603.75 -18.20 601.82 -18.17Q599.90 -18.15 597.95 -18.09Q596.00 -18.05 594.37 -18.00Q592.75 -17.95 591.85 -17.90Q591.90 -18.25 591.84 -19.07Q591.80 -19.90 591.77 -20.72Q591.75 -21.55 591.70 -21.85Q592.85 -21.85 595.05 -21.85Q597.25 -21.85 599.90 -21.88Q602.55 -21.90 605.12 -21.95Q607.70 -22.00 609.60 -22.05Q611.50 -22.10 612.15 -22.15Q612.10 -21.60 611.95 -20.17Q611.80 -18.75 611.65 -16.82Q611.50 -14.90 611.32 -12.92Q611.15 -10.95 611.02 -9.25Q610.90 -7.55 610.85 -6.60Q613.75 -6.60 616.05 -6.65Q618.35 -6.70 619.60 -6.75Q619.60 -6.40 619.55 -5.57Q619.50 -4.75 619.48 -3.92Q619.45 -3.10 619.45 -2.75Q618.25 -2.80 615.77 -2.84Q613.30 -2.90 610.09 -2.92Q606.90 -2.95 603.45 -2.95Q600.00 -2.95 596.75 -2.92Q593.50 -2.90 590.92 -2.84Q588.35 -2.80 587.00 -2.70ZM633.65 -5.60Q633.65 -6.10 633.62 -7.07Q633.60 -8.05 633.57 -9.07Q633.55 -10.10 633.50 -10.60Q635.15 -10.55 638.17 -10.52Q641.20 -10.50 645.05 -10.50Q648.90 -10.50 653.02 -10.52Q657.15 -10.55 661.07 -10.59Q665.00 -10.65 668.20 -10.75Q671.40 -10.85 673.30 -10.95Q673.30 -10.40 673.25 -9.32Q673.20 -8.25 673.20 -7.23Q673.20 -6.20 673.20 -5.75Q671.35 -5.80 668.20 -5.84Q665.05 -5.90 661.17 -5.90Q657.30 -5.90 653.20 -5.90Q649.10 -5.90 645.27 -5.88Q641.45 -5.85 638.42 -5.77Q635.40 -5.70 633.65 -5.60ZM638.65 -26.55Q638.65 -27.20 638.62 -28.17Q638.60 -29.15 638.60 -30.12Q638.60 -31.10 638.55 -31.60Q639.95 -31.50 642.30 -31.45Q644.65 -31.40 647.52 -31.38Q650.40 -31.35 653.47 -31.35Q656.55 -31.35 659.45 -31.38Q662.35 -31.40 664.73 -31.45Q667.10 -31.50 668.55 -31.60Q668.55 -31.00 668.52 -30.02Q668.50 -29.05 668.48 -28.09Q668.45 -27.15 668.45 -26.60Q666.95 -26.65 664.52 -26.70Q662.10 -26.75 659.17 -26.77Q656.25 -26.80 653.20 -26.80Q650.15 -26.80 647.32 -26.77Q644.50 -26.75 642.23 -26.70Q639.95 -26.65 638.65 -26.55ZM693.30 2.25Q692.95 1.80 692.12 1.20Q691.30 0.60 690.47 0.02Q689.65 -0.55 689.15 -0.80Q692.65 -3.05 695.30 -6.47Q697.95 -9.90 699.52 -13.92Q701.10 -17.95 701.40 -22.05Q697.60 -22.00 694.05 -21.90Q690.50 -21.80 687.73 -21.72Q684.95 -21.65 683.35 -21.55Q683.40 -22.10 683.37 -23.00Q683.35 -23.90 683.32 -24.77Q683.30 -25.65 683.25 -26.20Q684.95 -26.15 687.95 -26.15Q690.95 -26.15 694.73 -26.17Q698.50 -26.20 702.60 -26.25Q706.70 -26.30 710.62 -26.38Q714.55 -26.45 717.82 -26.55Q721.10 -26.65 723.15 -26.75Q723.15 -26.25 723.12 -25.38Q723.10 -24.50 723.10 -23.62Q723.10 -22.75 723.15 -22.20Q721.55 -22.25 718.95 -22.25Q716.35 -22.25 713.10 -22.23Q709.85 -22.20 706.35 -22.10Q705.85 -14.95 702.50 -8.58Q699.15 -2.20 693.30 2.25ZM689.40 -33.55Q689.45 -34.05 689.42 -35.02Q689.40 -36.00 689.40 -36.90Q689.40 -37.30 689.40 -37.62Q689.40 -37.95 689.40 -38.20Q691.30 -38.15 694.09 -38.12Q696.90 -38.10 700.15 -38.12Q703.40 -38.15 706.62 -38.22Q709.85 -38.30 712.57 -38.40Q715.30 -38.50 717.00 -38.60Q717.00 -38.05 716.98 -37.09Q716.95 -36.15 716.95 -35.27Q716.95 -34.40 717.00 -33.90Q715.20 -33.95 712.40 -33.95Q709.60 -33.95 706.30 -33.92Q703.00 -33.90 699.75 -33.84Q696.50 -33.80 693.77 -33.72Q691.05 -33.65 689.40 -33.55ZM753.55 3.30Q753.55 2.20 753.57 -0.12Q753.60 -2.45 753.62 -5.35Q753.65 -8.25 753.65 -11.15Q753.65 -14.05 753.65 -16.30Q750.60 -14.00 747.55 -11.98Q744.50 -9.95 741.85 -8.50Q741.60 -8.75 740.95 -9.38Q740.30 -10.00 739.65 -10.65Q739.00 -11.30 738.70 -11.50Q741.50 -12.85 744.80 -14.95Q748.10 -17.05 751.40 -19.52Q754.70 -22.00 757.50 -24.45Q760.30 -26.90 762.10 -28.85Q762.40 -28.60 763.07 -28.10Q763.75 -27.60 764.45 -27.10Q765.15 -26.60 765.45 -26.40Q763.85 -24.70 761.82 -22.90Q759.80 -21.10 757.55 -19.30Q757.55 -17.50 757.57 -14.98Q757.60 -12.45 757.62 -9.65Q757.65 -6.85 757.67 -4.25Q757.70 -1.65 757.73 0.35Q757.75 2.35 757.75 3.30Z"/>
  </g>
</svg>
